<svg width="16" height="17" viewBox="0 0 16 17" fill="none" xmlns="http://www.w3.org/2000/svg">
<g clip-path="url(#clip0_349_2275)">
<path d="M8 0.375C4.7 0.375 2.01562 3.05938 2.01562 6.35938C2.01562 7.43437 2.52188 8.79063 3.55938 10.5063C4.42188 11.9313 5.49063 13.3469 6.43125 14.5938C6.86562 15.1687 7.275 15.7125 7.59062 16.1625C7.68437 16.2969 7.8375 16.375 8 16.375C8.1625 16.375 8.31563 16.2969 8.40938 16.1625C8.725 15.7125 9.13438 15.1687 9.56875 14.5938C10.5094 13.3469 11.575 11.9313 12.4406 10.5063C13.4781 8.79063 13.9844 7.43437 13.9844 6.35938C13.9844 3.05938 11.3 0.375 8 0.375ZM8 9.125C6.475 9.125 5.23438 7.88438 5.23438 6.35938C5.23438 4.83437 6.475 3.59375 8 3.59375C9.525 3.59375 10.7656 4.83437 10.7656 6.35938C10.7656 7.88438 9.525 9.125 8 9.125Z" fill="white"/>
</g>
<defs>
<clipPath id="clip0_349_2275">
<rect width="16" height="16" fill="white" transform="translate(0 0.375)"/>
</clipPath>
</defs>
</svg>
